<?xml version="1.0" encoding="UTF-8" standalone="no"?>
<svg
   xmlns:dc="http://purl.org/dc/elements/1.1/"
   xmlns:cc="http://creativecommons.org/ns#"
   xmlns:rdf="http://www.w3.org/1999/02/22-rdf-syntax-ns#"
   xmlns:svg="http://www.w3.org/2000/svg"
   xmlns="http://www.w3.org/2000/svg"
   xmlns:xlink="http://www.w3.org/1999/xlink"
   xmlns:sodipodi="http://sodipodi.sourceforge.net/DTD/sodipodi-0.dtd"
   xmlns:inkscape="http://www.inkscape.org/namespaces/inkscape"
   width="300"
   height="300"
   viewBox="0 0 30.001859 21.213438"
   version="1.1"
   id="svg1404"
   inkscape:version="1.0.2-2 (e86c870879, 2021-01-15)"
   sodipodi:docname="LOGO_ASIDE_FORM.svg">
  <defs
     id="defs1398">
    <linearGradient
       inkscape:collect="always"
       xlink:href="#linearGradient1059"
       id="linearGradient1053"
       x1="188.18867"
       y1="169.74883"
       x2="258.26874"
       y2="169.74883"
       gradientUnits="userSpaceOnUse"
       gradientTransform="matrix(0.10366716,0,0,0.10366716,-8.7351539,-12.771012)" />
    <linearGradient
       inkscape:collect="always"
       id="linearGradient1059">
      <stop
         style="stop-color:#399ecc;stop-opacity:1"
         offset="0"
         id="stop1055" />
      <stop
         style="stop-color:#000000;stop-opacity:1"
         offset="1"
         id="stop1057" />
    </linearGradient>
    <linearGradient
       inkscape:collect="always"
       xlink:href="#linearGradient1059"
       id="linearGradient1051"
       x1="187.90598"
       y1="175.82057"
       x2="249.74574"
       y2="175.82057"
       gradientUnits="userSpaceOnUse"
       gradientTransform="matrix(0.10366716,0,0,0.10366716,-8.6875213,-12.783135)" />
    <linearGradient
       inkscape:collect="always"
       xlink:href="#linearGradient989"
       id="linearGradient993"
       gradientUnits="userSpaceOnUse"
       x1="238.86807"
       y1="206.10112"
       x2="260.79251"
       y2="206.10112"
       gradientTransform="matrix(0.10366716,0,0,0.10366716,-8.7351539,-12.771012)" />
    <linearGradient
       inkscape:collect="always"
       id="linearGradient989">
      <stop
         style="stop-color:#fbe247;stop-opacity:1;"
         offset="0"
         id="stop985" />
      <stop
         style="stop-color:#fac32b;stop-opacity:1"
         offset="1"
         id="stop987" />
    </linearGradient>
    <linearGradient
       inkscape:collect="always"
       xlink:href="#linearGradient989"
       id="linearGradient970"
       x1="211.30322"
       y1="206.10112"
       x2="260.79251"
       y2="206.10112"
       gradientUnits="userSpaceOnUse"
       gradientTransform="matrix(0.10366716,0,0,0.10366716,-8.7351539,-12.771012)" />
    <linearGradient
       inkscape:collect="always"
       xlink:href="#linearGradient3038"
       id="linearGradient3042"
       x1="377.72318"
       y1="217.63109"
       x2="392.00903"
       y2="217.36592"
       gradientUnits="userSpaceOnUse"
       gradientTransform="matrix(2.2413376,0,0,1.0021605,-466.34976,-8.6080618)" />
    <linearGradient
       inkscape:collect="always"
       id="linearGradient3038">
      <stop
         style="stop-color:#deaa87;stop-opacity:1"
         offset="0"
         id="stop3034" />
      <stop
         style="stop-color:#feec40;stop-opacity:1"
         offset="1"
         id="stop3036" />
    </linearGradient>
    <linearGradient
       inkscape:collect="always"
       xlink:href="#linearGradient3038"
       id="linearGradient3056"
       x1="421.50458"
       y1="266.65472"
       x2="430.64545"
       y2="266.65472"
       gradientUnits="userSpaceOnUse"
       gradientTransform="matrix(1.1799584,0,0,1,-106.75438,-9.9164983)" />
    <linearGradient
       inkscape:collect="always"
       xlink:href="#linearGradient984"
       id="linearGradient986"
       x1="243.54443"
       y1="249.32433"
       x2="262.96121"
       y2="249.23593"
       gradientUnits="userSpaceOnUse"
       gradientTransform="matrix(0.10366716,0,0,0.10366716,-8.7351539,-12.771012)" />
    <linearGradient
       inkscape:collect="always"
       id="linearGradient984">
      <stop
         style="stop-color:#fbe247;stop-opacity:1"
         offset="0"
         id="stop980" />
      <stop
         style="stop-color:#fac82e;stop-opacity:1"
         offset="1"
         id="stop982" />
    </linearGradient>
    <linearGradient
       inkscape:collect="always"
       xlink:href="#linearGradient1005"
       id="linearGradient1007"
       x1="245.16856"
       y1="271.15726"
       x2="266.59894"
       y2="271.15726"
       gradientUnits="userSpaceOnUse"
       gradientTransform="matrix(0.10366716,0,0,0.10366716,-8.7351539,-12.771012)" />
    <linearGradient
       inkscape:collect="always"
       id="linearGradient1005">
      <stop
         style="stop-color:#fbe247;stop-opacity:1"
         offset="0"
         id="stop1001" />
      <stop
         style="stop-color:#fac92f;stop-opacity:1"
         offset="1"
         id="stop1003" />
    </linearGradient>
    <linearGradient
       inkscape:collect="always"
       xlink:href="#linearGradient989"
       id="linearGradient1026"
       x1="231.01126"
       y1="296.71985"
       x2="235.66414"
       y2="294.81952"
       gradientUnits="userSpaceOnUse"
       gradientTransform="matrix(0.10366716,0,0,0.10366716,-8.7351539,-12.771012)" />
    <linearGradient
       inkscape:collect="always"
       xlink:href="#linearGradient989"
       id="linearGradient959"
       x1="246.04442"
       y1="300.38724"
       x2="255.47133"
       y2="307.10477"
       gradientUnits="userSpaceOnUse"
       gradientTransform="matrix(0.10366716,0,0,0.10366716,-8.7351539,-12.771012)" />
    <radialGradient
       inkscape:collect="always"
       xlink:href="#linearGradient1010"
       id="radialGradient1020-4"
       gradientUnits="userSpaceOnUse"
       gradientTransform="matrix(0.36032911,0.08716517,-0.08437441,0.34879245,150.37954,187.21677)"
       cx="193.74725"
       cy="313.42508"
       fx="193.74725"
       fy="313.42508"
       r="17.224516" />
    <linearGradient
       inkscape:collect="always"
       id="linearGradient1010">
      <stop
         style="stop-color:#ffffff;stop-opacity:0.16403785"
         offset="0"
         id="stop1006" />
      <stop
         style="stop-color:#ffffff;stop-opacity:0.58990536"
         offset="1"
         id="stop1008" />
    </linearGradient>
    <radialGradient
       inkscape:collect="always"
       xlink:href="#linearGradient1010"
       id="radialGradient1087"
       gradientUnits="userSpaceOnUse"
       gradientTransform="matrix(0.36032911,0.08716517,-0.08437441,0.34879245,150.37954,187.21677)"
       cx="193.74725"
       cy="313.42508"
       fx="193.74725"
       fy="313.42508"
       r="17.224516" />
    <linearGradient
       inkscape:collect="always"
       xlink:href="#linearGradient996"
       id="linearGradient998"
       x1="208.18298"
       y1="309.78995"
       x2="222.81863"
       y2="305.85245"
       gradientUnits="userSpaceOnUse"
       gradientTransform="matrix(0.10366716,0,0,0.10366716,-8.7351539,-12.771012)" />
    <linearGradient
       inkscape:collect="always"
       id="linearGradient996">
      <stop
         style="stop-color:#fdff5b;stop-opacity:1;"
         offset="0"
         id="stop992" />
      <stop
         style="stop-color:#fdff5b;stop-opacity:0;"
         offset="1"
         id="stop994" />
    </linearGradient>
    <linearGradient
       inkscape:collect="always"
       xlink:href="#linearGradient996"
       id="linearGradient990"
       x1="229.79173"
       y1="321.65576"
       x2="248.84294"
       y2="309.59326"
       gradientUnits="userSpaceOnUse"
       gradientTransform="matrix(0.10366716,0,0,0.10366716,-8.7351539,-12.771012)" />
  </defs>
  <sodipodi:namedview
     id="base"
     pagecolor="#ffffff"
     bordercolor="#666666"
     borderopacity="1.0"
     inkscape:pageopacity="0"
     inkscape:pageshadow="2"
     inkscape:zoom="1.3629885"
     inkscape:cx="598.84493"
     inkscape:cy="164.3727"
     inkscape:document-units="mm"
     inkscape:current-layer="layer1"
     inkscape:document-rotation="0"
     showgrid="false"
     inkscape:window-width="2880"
     inkscape:window-height="1526"
     inkscape:window-x="3373"
     inkscape:window-y="345"
     inkscape:window-maximized="1"
     units="px" />
  <metadata
     id="metadata1401">
    <rdf:RDF>
      <cc:Work
         rdf:about="">
        <dc:format>image/svg+xml</dc:format>
        <dc:type
           rdf:resource="http://purl.org/dc/dcmitype/StillImage" />
        <dc:title></dc:title>
      </cc:Work>
    </rdf:RDF>
  </metadata>
  <g
     inkscape:label="Ebene 1"
     inkscape:groupmode="layer"
     id="layer1">
    <circle
       style="fill:#ffffff;fill-opacity:1;stroke:#ffffff;stroke-width:0;stroke-opacity:1;stop-color:#000000"
       id="path1203"
       cx="15.022415"
       cy="10.621913"
       r="15.000929" />
    <g
       id="g1257"
       transform="translate(-0.0044891,-0.08296968)">
      <path
         style="display:inline;fill:#fbe247;fill-opacity:1;stroke:#fbe247;stroke-width:0.103667px;stroke-linecap:butt;stroke-linejoin:miter;stroke-opacity:1"
         d="M 2.611896,6.8713185 C 4.166296,8.6167897 5.3124898,10.713921 8.8524804,10.887667 11.621108,10.859374 15.105054,7.8666212 18.092718,6.2609596 23.565,3.2359451 26.320118,4.8111971 28.829413,5.8725521 26.129219,4.759102 23.354032,3.7887424 18.425637,6.9268029 15.419085,8.9068719 12.243319,12.2303 8.8819055,12.281278 5.725723,12.135928 3.6348058,8.7669793 2.611896,6.8713185 Z"
         id="path996"
         sodipodi:nodetypes="ccccccc" />
      <path
         style="display:inline;fill:#399ecc;fill-opacity:1;stroke:#399ecc;stroke-width:0.103667px;stroke-linecap:butt;stroke-linejoin:miter;stroke-opacity:1"
         d="M 2.4950338,8.3980879 C 4.0563729,10.731235 5.2076916,13.534453 8.7634954,13.766696 11.54449,13.728883 15.044002,9.7284959 18.04501,7.5822318 23.541738,3.5387263 26.309167,5.6443449 28.829668,7.063052 26.117414,5.5747157 23.329829,4.2776468 18.379419,8.4722538 15.359435,11.118989 12.169482,15.561375 8.7930496,15.629523 5.6227664,15.435235 3.5225122,10.932 2.4950338,8.3980879 Z"
         id="path996-0-0"
         sodipodi:nodetypes="ccccccc" />
      <path
         style="display:inline;fill:#2e8ec1;fill-opacity:1;stroke:#2e8ec1;stroke-width:0.103667px;stroke-linecap:butt;stroke-linejoin:miter;stroke-opacity:1"
         d="M 2.5343209,10.139935 C 4.1154466,13.063043 5.2813485,16.57507 8.8822026,16.866041 11.698437,16.818671 15.242283,11.80675 18.281317,9.1177854 23.847685,4.0518526 26.650181,6.6898936 29.202619,8.4673291 26.455995,6.6026522 23.633093,4.9776122 18.619961,10.232857 15.561712,13.54884 12.331348,19.114519 8.912137,19.199898 5.7016853,18.956476 3.5748193,13.314567 2.5343209,10.139935 Z"
         id="path1050"
         sodipodi:nodetypes="ccccccc" />
      <g
         aria-label="Karin Guth"
         id="text1114"
         style="font-size:40.547px;line-height:1.25;font-family:sans-serif;display:inline;fill:#ff4000;fill-opacity:1;stroke:#000080;stroke-width:0.3;stroke-miterlimit:4;stroke-dasharray:none;stroke-opacity:1"
         transform="matrix(0.10870782,0,0,0.10870782,-9.8532116,-13.680104)">
        <path
           id="path1138"
           style="font-style:normal;font-variant:normal;font-weight:normal;font-stretch:normal;font-size:40.547px;font-family:'Josefin Sans';-inkscape-font-specification:'Josefin Sans';fill:#ff4000;fill-opacity:1;stroke:#000080;stroke-width:0.3;stroke-miterlimit:4;stroke-dasharray:none;stroke-opacity:1"
           d="m 299.31789,334.16188 -18.48149,-25.36436 2.98212,-2.17289 10.88832,14.94335 -0.47147,-0.50934 q -0.29081,-1.84503 0.47362,-3.75658 0.7972,-1.93543 2.73066,-3.34423 1.93346,-1.4088 3.98169,-1.14531 2.05713,0.20684 3.40318,1.98534 l 7.30664,10.02777 -3.08043,2.24452 -6.51866,-8.94635 q -0.84462,-1.09031 -1.9687,-1.32481 -1.11518,-0.29115 -2.39323,0.64008 -1.17974,0.85961 -1.62865,2.24025 -0.47278,1.34787 -0.19416,2.90076 0.3114,1.52901 1.38591,3.00368 l 4.63231,6.35748 z m -22.73365,-15.03197 3.32471,-1.77927 3.52027,6.57792 4.07544,-2.18104 1.39663,2.60972 -4.07544,2.18103 6.48571,12.1191 -3.3247,1.77926 -6.48572,-12.11909 -2.71696,1.45403 -1.39663,-2.60972 2.71696,-1.45402 z m -5.32151,29.17271 q -2.12986,0.78704 -4.01494,0.0139 -1.8611,-0.82522 -2.71015,-2.88894 l -4.30061,-11.63822 3.53711,-1.30704 3.83681,10.38311 q 0.55391,1.26502 1.49562,1.8248 0.97974,0.54573 2.43906,0.0497 1.33117,-0.4919 2.07698,-1.63203 0.7698,-1.19222 0.92447,-2.76231 0.14061,-1.60812 -0.49183,-3.31962 l -2.71247,-7.34044 3.5371,-1.30705 5.81846,15.74582 -3.23283,1.19461 -1.7378,-3.76697 0.44314,0.61433 q -0.0488,1.27162 -0.67641,2.49774 -0.60361,1.17404 -1.67601,2.13226 -1.07239,0.95822 -2.5557,1.50634 z m -11.90684,0.81498 q -0.51757,0.61634 -1.51563,1.30933 -1.00445,0.65296 -2.26191,1.26415 -1.21743,0.60481 -2.58053,1.06862 -1.32306,0.45742 -2.52428,0.64905 -3.48354,0.55572 -6.45885,-0.0783 -2.93528,-0.64035 -5.24392,-2.24293 -2.2686,-1.60896 -3.76489,-4.03914 -1.45625,-2.43657 -1.94171,-5.47966 -0.57488,-3.60367 0.13278,-6.6318 0.74132,-3.07456 2.4704,-5.36232 1.76274,-2.33419 4.28578,-3.76317 2.51665,-1.46903 5.5197,-1.9481 2.52257,-0.40241 4.78058,-0.14673 2.25801,0.25568 4.04659,0.91472 l -0.75284,3.77442 q -0.87747,-0.35274 -2.14257,-0.56152 -1.22505,-0.21517 -2.50464,-0.2574 -1.28598,-0.0823 -2.36707,0.0902 -2.56261,0.40881 -4.51697,1.54178 -1.96076,1.09292 -3.20592,2.81077 -1.25156,1.67781 -1.72022,3.88768 -0.47504,2.16982 -0.0662,4.73243 0.37687,2.3624 1.49068,4.19664 1.1138,1.83425 2.82526,3.03937 1.70507,1.16508 3.8749,1.64013 2.20348,0.42862 4.686,0.0326 1.48151,-0.23634 2.87826,-0.74658 1.39037,-0.55028 2.342,-1.27692 l -0.91981,-5.76586 -5.76586,0.91981 -0.59405,-3.72379 9.64981,-1.5394 z m -52.81055,-12.37469 -0.219,4.10223 -0.0751,-0.66448 q 1.05003,-1.74181 3.00319,-2.58616 1.9585,-0.88455 4.32984,-0.56879 2.37134,0.31576 3.67114,1.92051 1.34534,1.56991 1.09118,3.78584 l -1.63768,12.29882 -3.77807,-0.50308 1.46107,-10.97248 q 0.14177,-1.37189 -0.50949,-2.31761 -0.60572,-0.98056 -2.17322,-1.18929 -1.44692,-0.19267 -2.71953,0.45597 -1.27262,0.64864 -2.1432,1.96439 -0.83039,1.3211 -1.07658,3.16994 l -1.03827,7.7973 -3.73788,-0.49773 2.21569,-16.63959 z m -11.33051,-2.6121 3.65001,0.94704 -4.21587,16.24844 -3.65001,-0.94705 z m 1.25276,-5.9584 q 0.22403,-0.86344 1.04399,-1.27903 0.8592,-0.40542 1.6834,-0.19157 0.82419,0.21385 1.2994,0.96549 0.51446,0.76183 0.29043,1.62527 -0.23422,0.90269 -1.05417,1.31829 -0.77053,0.38653 -1.59472,0.17268 -0.8242,-0.21385 -1.3779,-0.98586 -0.51446,-0.76182 -0.29043,-1.62527 z m -11.02624,2.77784 -1.32177,4.69686 0.0315,-0.67896 q 1.13675,-1.22585 2.64043,-1.80028 1.55566,-0.59867 3.00718,-0.67428 1.50348,-0.0998 2.45599,0.24696 l -1.46676,3.43585 q -1.74908,-0.7663 -3.41201,-0.4656 -1.62482,0.31457 -2.91045,1.35676 -1.24753,1.05606 -1.80243,2.58006 l -2.62186,7.20092 -3.50521,-1.27625 5.74313,-15.77345 z m -24.22331,7.70787 q -2.06913,-1.11772 -3.29975,-2.9346 -1.19493,-1.7976 -1.26882,-4.04958 -0.0189,-2.26838 1.33003,-4.76561 1.3297,-2.46156 3.32782,-3.68644 2.01739,-1.26055 4.2501,-1.29876 2.26838,-0.0189 4.33751,1.09878 2.06914,1.11772 2.97581,2.85178 0.92594,1.69838 0.98136,3.38737 l -0.52239,0.45517 2.01692,-2.96594 3.06803,1.65731 -7.9782,14.76934 -3.31775,-1.79221 2.08127,-3.85287 -0.10576,1.04891 q -0.33541,0.27966 -1.14319,0.58066 -0.75284,0.2846 -1.88169,0.41216 -1.09318,0.14684 -2.33973,-0.0196 -1.22728,-0.20211 -2.51157,-0.89587 z m 2.37574,-2.26518 q 1.24861,0.67449 2.49803,0.7503 1.24941,0.0758 2.33479,-0.39782 1.14033,-0.49005 2.02599,-1.53242 l 1.56096,-2.88965 q 0.29273,-1.22441 0.003,-2.39468 -0.27026,-1.20593 -1.03791,-2.17362 -0.74837,-1.00336 -1.96131,-1.65857 -1.31996,-0.71303 -2.77276,-0.66829 -1.45279,0.0447 -2.74728,0.82019 -1.25882,0.79471 -2.08748,2.32873 -0.77084,1.42699 -0.72896,2.9704 0.0419,1.54342 0.81732,2.83791 0.77544,1.29449 2.09541,2.00752 z m -14.84869,-28.35485 -1.01736,1.05379 0.86988,-0.23201 17.22059,-2.11508 3.9261,3.20534 -17.34046,2.06956 -0.66525,21.07492 -3.86328,-3.15405 0.70866,-17.79416 -3.42885,0.28892 -7.48767,9.17136 -3.07806,-2.51298 18.53966,-22.70855 3.07807,2.51298 z m 173.94388,-42.00514 q 1.10047,-2.66023 2.94006,-4.13711 1.87706,-1.46137 4.14698,-1.75099 2.29189,-0.23666 4.68985,0.75532 2.28554,0.94548 3.67845,2.88198 1.39291,1.93649 1.71097,4.34982 0.31806,2.41332 -0.67392,4.81127 -1.27098,3.07238 -3.90642,4.35167 -2.63545,1.27929 -6.07726,0.68921 l 0.78923,-14.63656 2.40174,0.0282 -0.51818,12.07201 -0.17709,-0.95086 q 1.42244,0.0619 2.75567,-0.61524 1.37069,-0.66161 2.06817,-2.34767 0.58899,-1.42378 0.34209,-2.84232 -0.20943,-1.40303 -1.14492,-2.53598 -0.93548,-1.13294 -2.47167,-1.76843 -1.61112,-0.66649 -3.12656,-0.50355 -1.47797,0.17843 -2.67035,1.04545 -1.17042,0.91998 -1.7904,2.4187 -0.41849,1.01164 -0.43131,2.10333 -0.0283,1.12917 0.23019,2.20146 l -3.25178,0.54165 q -0.30634,-1.48701 -0.18894,-3.14975 0.10191,-1.62528 0.6754,-3.0116 z m 6.33197,-11.40807 q -0.64672,-1.29091 -0.84661,-2.94577 -0.19989,-1.65486 0.11666,-3.2042 0.55194,-2.70142 2.03852,-4.50832 1.48658,-1.80691 3.62885,-2.56938 2.17387,-0.71462 4.79583,-0.17892 2.62197,0.53571 4.32507,2.12524 1.69499,1.62925 2.33016,3.78689 0.66678,2.20549 0.20412,4.46991 -0.40584,1.98633 -1.27857,3.42204 -0.88084,1.47543 -2.06155,2.39298 l -2.01023,-2.31444 q 0.70227,-0.60144 1.3503,-1.54505 0.64803,-0.94361 0.91589,-2.25459 0.2922,-1.43016 -0.21098,-2.81591 -0.47158,-1.3379 -1.59673,-2.31272 -1.13327,-0.93509 -2.72234,-1.25976 -1.50961,-0.30844 -2.96669,0.13878 -1.41736,0.45535 -2.43191,1.57238 -0.97481,1.12515 -1.3076,2.75395 -0.21916,1.07262 -0.0799,2.01154 0.13113,0.97865 0.5412,1.80736 z m 18.78845,-22.88945 -0.23507,3.76357 -16.75398,-1.04644 0.23507,-3.76357 z m 6.08797,0.0959 q 0.89031,0.0556 1.45437,0.78148 0.56153,0.76635 0.50845,1.61619 -0.0531,0.84984 -0.70055,1.45942 -0.65,0.65005 -1.54031,0.59444 -0.93077,-0.0581 -1.49483,-0.78401 -0.52612,-0.68288 -0.47304,-1.53272 0.0531,-0.84984 0.7056,-1.54036 0.65,-0.65005 1.54031,-0.59444 z m -23.60717,-14.30856 16.41726,-10.76147 0.37942,4.44404 -12.75366,7.43727 -0.11581,-2.30972 13.70418,4.64936 0.35872,4.20164 -17.97286,-7.45912 z m 13.46266,-22.69346 -4.61269,1.59099 0.57582,-0.36114 q 1.65516,0.23535 2.98422,1.14349 1.37858,0.93703 2.26803,2.08661 0.93897,1.17848 1.19691,2.1588 l -3.65917,0.75312 q -0.36727,-1.87395 -1.56216,-3.06895 -1.18458,-1.15579 -2.77369,-1.61816 -1.57879,-0.42315 -3.14731,-0.0105 l -7.41122,1.94996 -0.94919,-3.60758 16.23412,-4.27134 z m -22.27692,-11.20908 q -1.20742,-2.61342 -1.04408,-4.96684 0.20015,-2.37042 1.52761,-4.23436 1.38128,-1.84414 3.73704,-2.93252 2.24534,-1.03737 4.61297,-0.7466 2.36762,0.29078 4.3562,1.69465 1.98857,1.40388 3.07696,3.75965 1.39449,3.01832 0.54599,5.82228 -0.8485,2.80396 -3.61732,4.93183 l -10.2161,-10.51108 1.65035,-1.74512 8.51617,8.57185 -0.81863,-0.5151 q 1.01062,-1.0029 1.41786,-2.44169 0.44405,-1.4558 -0.32122,-3.11219 -0.64622,-1.39874 -1.85577,-2.17989 -1.17274,-0.79815 -2.63972,-0.87971 -1.46699,-0.0816 -2.97615,0.61569 -1.58278,0.73126 -2.49136,1.95501 -0.87177,1.20675 -1.04395,2.67094 -0.11837,1.48399 0.56187,2.95634 0.45916,0.99384 1.2524,1.744 0.81024,0.78697 1.77332,1.32467 l -1.80855,2.75619 q -1.30017,-0.78395 -2.44192,-1.99841 -1.12474,-1.17766 -1.75397,-2.53959 z m 12.46552,-28.26469 q -0.29105,-1.66119 -0.91505,-3.42636 -0.624,-1.76517 -1.6517,-3.12311 -1.41921,-1.87525 -3.1486,-2.3462 -1.70491,-0.43862 -3.15985,0.66249 -1.09928,0.83195 -1.33692,2.13052 -0.20532,1.27409 0.12593,2.85401 0.33125,1.57993 0.80057,3.20791 0.41164,1.41738 0.70181,2.87584 0.29017,1.45846 0.1504,2.88635 -0.1153,1.46022 -0.87987,2.80162 -0.74011,1.37373 -2.42137,2.64613 -1.84292,1.39474 -4.07213,1.60717 -2.20473,0.24475 -4.37456,-0.80817 -2.16983,-1.05292 -3.95608,-3.41315 -1.17452,-1.55193 -1.89551,-3.2437 -0.69652,-1.65943 -1.05224,-3.27168 -0.32338,-1.63673 -0.41868,-3.03927 l 3.5094,-0.46938 q 0.0376,1.19194 0.27885,2.58573 0.27356,1.36933 0.7822,2.7133 0.54096,1.31951 1.32397,2.35413 0.83195,1.09929 2.02742,1.87261 1.25227,0.78119 2.63122,0.85629 1.37895,0.0751 2.76922,-0.97707 1.19628,-0.90536 1.48286,-2.13926 0.34339,-1.22603 0.11002,-2.67663 -0.20104,-1.47507 -0.62929,-2.98158 -0.41163,-1.41739 -0.78308,-2.91604 -0.33911,-1.52312 -0.36188,-3.0314 0.01,-1.53275 0.63607,-2.92221 0.6265,-1.38945 2.1461,-2.5395 1.84292,-1.39475 3.86153,-1.54949 2.07541,-0.14688 4.02589,0.81779 1.98282,0.9402 3.56457,2.89584 1.71284,2.26323 2.46007,4.3928 0.77169,2.1619 0.99896,4.07477 z m -31.6988,-15.15631 5.55913,5.15639 -2.26108,2.43769 -5.55913,-5.15639 z m -17.01747,0.65398 q -2.39977,-1.59027 -3.49641,-3.67897 -1.07423,-2.12249 -0.92311,-4.40582 0.20732,-2.29473 1.6408,-4.45791 1.36628,-2.06178 3.53398,-3.05741 2.1677,-0.99564 4.59722,-0.84493 2.42953,0.15072 4.5927,1.5842 2.77157,1.83665 3.52164,4.66853 0.75007,2.83188 -0.48918,6.09661 l -14.21345,-3.58181 0.4883,-2.35174 11.74851,2.82392 -0.96717,-0.009 q 0.33354,-1.38416 -0.0753,-2.8225 -0.38644,-1.47214 -1.90742,-2.48006 -1.28438,-0.85113 -2.72394,-0.88088 -1.41715,-0.0636 -2.70849,0.63727 -1.29133,0.70082 -2.20966,2.0866 -0.96312,1.45339 -1.09386,2.97194 -0.10835,1.48476 0.51387,2.82129 0.67843,1.32514 2.03041,2.22106 0.91259,0.60475 1.98156,0.82671 1.10277,0.24436 2.20474,0.19632 l -0.0921,3.2953 q -1.51815,0.0155 -3.12751,-0.41869 -1.57556,-0.41173 -2.82615,-1.24046 z m -18.16534,-10.16272 5.38969,-12.29144 -2.63654,-1.1561 1.3515,-3.08214 2.63653,1.1561 2.84953,-6.4985 q 1.46548,-3.34209 3.73244,-4.47321 2.30409,-1.11484 5.23769,0.17152 0.77982,0.34194 1.61048,0.97183 0.8678,0.64616 1.34538,1.47542 l -2.5392,1.85296 q -0.18766,-0.48076 -0.54729,-0.77128 -0.34334,-0.32765 -0.75182,-0.50676 -1.37397,-0.60247 -2.52373,2.2e-4 -1.14976,0.6027 -2.12674,2.83076 l -2.83325,6.46136 4.86459,2.13308 -1.3515,3.08214 -4.86458,-2.13308 -5.38969,12.29145 z m -1.95022,-33.83068 3.60922,1.09235 -9.09118,30.03808 -3.60923,-1.09235 z m -15.87857,11.25806 3.69971,0.72931 -3.24657,16.46968 -3.69971,-0.7293 z m 0.89782,-6.02217 q 0.17253,-0.8752 0.96645,-1.33861 0.8337,-0.45557 1.66912,-0.29089 0.83542,0.16468 1.3543,0.88688 0.55866,0.73004 0.38614,1.60524 -0.18037,0.91498 -0.97429,1.3784 -0.7463,0.43147 -1.58171,0.26679 -0.83542,-0.16468 -1.43387,-0.90257 -0.55866,-0.73004 -0.38614,-1.60524 z m -11.8049,-8.51026 0.25048,29.3147 -3.89241,0.0333 -0.10982,-12.85306 -15.36691,0.1313 0.10983,12.85306 -3.93296,0.0336 -0.25048,-29.3147 3.93296,-0.0336 0.10878,12.73142 15.3669,-0.1313 -0.10878,-12.73142 z m -39.34239,22.70548 7.39497,-1.6753 0.73463,3.24272 -7.39498,1.6753 z m -7.71176,13.79328 q -1.66795,0.63319 -3.47593,0.66899 -1.78447,-0.0165 -3.2541,-0.8031 l 0.70131,-2.60826 q 1.34537,0.57354 2.55596,0.67779 1.2341,0.052 2.25761,-0.3366 0.75816,-0.28781 1.33064,-0.72199 0.57248,-0.43418 0.79326,-0.99508 0.24429,-0.61319 -0.0435,-1.37134 -0.3166,-0.83397 -1.07229,-1.11091 -0.71779,-0.29134 -1.7048,-0.26361 -0.94909,0.0133 -1.99752,0.10775 -2.17794,0.0895 -3.63317,-0.65919 -1.45523,-0.74869 -2.07403,-2.37872 -0.4749,-1.25096 -0.27131,-2.54263 0.2271,-1.34396 1.18111,-2.48681 0.99193,-1.15723 2.8115,-1.84798 1.63003,-0.61881 3.0772,-0.6911 1.43277,-0.11021 2.91538,0.36785 l -0.56793,2.73111 q -0.95576,-0.46121 -2.03297,-0.44262 -1.07721,0.0186 -1.84976,0.26851 -0.65882,0.20673 -1.179,0.66443 -0.48227,0.44331 -0.70305,1.0042 -0.22078,0.56089 -0.005,1.12951 0.3022,0.79606 1.01999,1.08739 0.71779,0.29134 1.66689,0.278 0.97261,-0.0656 1.92171,-0.079 1.30465,-0.10495 2.4303,0.11829 1.12565,0.22324 1.97295,0.85574 0.88521,0.61811 1.36011,1.86907 0.53245,1.40259 0.31062,2.87467 -0.19832,1.41978 -1.28958,2.6581 -1.06774,1.18601 -3.15266,1.9775 z m -27.82414,-13.73431 3.28802,-1.84625 3.65279,6.50534 4.03049,-2.26314 1.4492,2.58093 -4.03048,2.26314 6.72987,11.98539 -3.28803,1.84624 -6.72987,-11.98538 -2.68699,1.50876 -1.4492,-2.58093 2.68699,-1.50876 z m -16.57976,2.39546 3.04375,-2.22605 18.52647,25.33192 -3.04376,2.22605 z m 6.33838,36.81931 q -1.64268,1.68297 -3.72754,2.36771 -2.05654,0.65573 -4.24235,0.10875 -2.18651,-0.60433 -4.21767,-2.58686 -2.00214,-1.95421 -2.63163,-4.21179 -0.65851,-2.2859 -0.0825,-4.44338 0.60433,-2.18651 2.247,-3.86947 1.64267,-1.68296 3.55899,-2.07893 1.88731,-0.42429 3.52666,-0.014 l 0.29434,0.62725 -2.29856,-2.75348 2.43568,-2.49543 12.01286,11.72527 -2.63394,2.69854 -3.13379,-3.05876 0.97962,0.38956 q 0.17688,0.39928 0.24464,1.25867 0.0671,0.80204 -0.12008,1.92257 -0.15881,1.09152 -0.66097,2.24454 -0.53117,1.1247 -1.55075,2.16929 z m -1.52623,-2.9062 q 0.99126,-1.01558 1.40706,-2.19622 0.4158,-1.18065 0.25821,-2.35436 -0.15828,-1.23104 -0.91757,-2.36878 l -2.35034,-2.29407 q -1.09708,-0.61752 -2.30188,-0.66027 -1.23382,-0.0711 -2.37503,0.40152 -1.17023,0.44428 -2.13317,1.43085 -1.04792,1.07361 -1.4036,2.48292 -0.35568,1.40931 0.0347,2.86692 0.41873,1.4286 1.66645,2.64644 1.16066,1.13288 2.65632,1.51619 1.49566,0.38331 2.95328,-0.007 1.45762,-0.39041 2.50553,-1.46403 z m -15.90625,26.41997 -26.77859,-16.36591 1.92416,-3.14839 15.77654,9.64193 -0.63045,-0.29026 q -0.97447,-1.59348 -0.99939,-3.65208 -0.004,-2.0932 1.24375,-4.13447 1.24754,-2.04126 3.2408,-2.58131 1.97982,-0.59579 3.90383,0.53256 l 10.58689,6.47024 -1.98759,3.25218 -9.44516,-5.77247 q -1.19747,-0.68432 -2.32577,-0.471 -1.14175,0.15758 -1.96639,1.50689 -0.7612,1.24551 -0.64785,2.69288 0.0788,1.42623 0.93023,2.75445 0.8726,1.29362 2.42949,2.24513 l 6.71195,4.10205 z m -4.18656,11.0589 q -0.62947,1.66935 -1.79942,3.04823 -1.19359,1.32664 -2.75599,1.90752 l -1.49081,-2.25218 q 1.32046,-0.62878 2.19994,-1.46717 0.85584,-0.89064 1.24211,-1.91502 0.28612,-0.75879 0.33963,-1.4753 0.0535,-0.71651 -0.22078,-1.25327 -0.29791,-0.58901 -1.0567,-0.87514 -0.83468,-0.31473 -1.54249,0.0684 -0.6935,0.34518 -1.32606,1.10335 -0.61825,0.72022 -1.24148,1.56858 -1.37459,1.69172 -2.89905,2.28691 -1.52445,0.5952 -3.15586,-0.02 -1.25202,-0.4721 -2.08543,-1.4797 -0.85705,-1.05986 -1.08218,-2.53144 -0.21081,-1.50952 0.47588,-3.33063 0.61516,-1.63141 1.51891,-2.764 0.8658,-1.14689 2.20554,-1.94174 l 1.67118,2.23353 q -0.97836,0.4111 -1.67747,1.23084 -0.69911,0.81974 -1.02318,1.56423 -0.28114,0.63067 -0.2824,1.32354 0.013,0.65493 0.28733,1.1917 0.27427,0.53676 0.84337,0.75135 0.79674,0.30043 1.49024,-0.0447 0.6935,-0.34517 1.31175,-1.0654 0.59462,-0.77247 1.21287,-1.4927 0.78495,-1.04738 1.69739,-1.74334 0.91245,-0.69597 1.94741,-0.91239 1.04926,-0.25436 2.30128,0.21774 1.40377,0.52933 2.36033,1.67004 0.93293,1.08846 1.13877,2.72611 0.1822,1.5854 -0.60463,3.67209 z m -5.10056,20.79412 q -0.39385,2.23624 -2.01179,3.47462 -1.65084,1.19143 -3.86121,0.88447 l -12.21943,-2.15212 0.65408,-3.71375 10.90165,1.92003 q 1.37178,0.15926 2.32993,-0.3719 0.96518,-0.5711 1.27237,-2.08151 0.24616,-1.39765 -0.3626,-2.61649 -0.64166,-1.26582 -1.91975,-2.19083 -1.31802,-0.93205 -3.11499,-1.24854 l -7.70703,-1.35738 0.65407,-3.71375 16.53218,2.91169 -0.59781,3.39429 -4.12941,-0.39791 0.75395,-0.0731 q 1.07366,0.68315 1.81629,1.84323 0.70972,1.11312 0.99676,2.52233 0.28703,1.40921 0.0127,2.96659 z m -1.17543,21.90868 q 0.11338,2.34901 -0.80528,4.3419 -0.92063,1.95238 -2.8099,3.18023 -1.93173,1.1893 -4.76675,1.32614 -2.79452,0.13489 -4.87622,-0.94187 -2.12221,-1.0748 -3.30955,-2.96603 -1.1893,-1.93173 -1.30269,-4.28074 -0.11338,-2.34902 0.90193,-4.02181 0.97481,-1.67084 2.39176,-2.59172 l 0.65973,0.21172 -3.58161,-0.19247 -0.16813,-3.48302 16.76711,-0.80934 0.18181,3.76652 -4.37403,0.21113 0.95245,-0.45192 q 0.41283,0.14245 1.0882,0.67818 0.63292,0.49718 1.32589,1.3974 0.69101,0.85973 1.1932,2.01273 0.4617,1.15496 0.53208,2.61297 z m -3.16739,-0.86198 q -0.0684,-1.41751 -0.64967,-2.5261 -0.58124,-1.10859 -1.54794,-1.79263 -1.00914,-0.72259 -2.35934,-0.94158 l -3.28052,0.15835 q -1.19937,0.38265 -2.05127,1.23567 -0.89241,0.85497 -1.32367,2.01243 -0.47177,1.15942 -0.4053,2.53643 0.0723,1.49851 0.86194,2.71883 0.78961,1.22032 2.12276,1.92726 1.3312,0.66645 3.07271,0.58239 1.62001,-0.0782 2.91937,-0.91222 1.29936,-0.83401 2.00631,-2.16717 0.70695,-1.33315 0.63462,-2.83166 z m -23.75551,24.55717 27.84675,-9.16367 1.21676,3.6975 -12.20944,4.01782 4.80364,14.59739 12.20943,-4.01781 1.22943,3.73601 -27.84676,9.16366 -1.22942,-3.73601 12.09389,-3.97979 -4.80364,-14.5974 -12.09389,3.97979 z" />
      </g>
      <path
         id="path984-7"
         style="display:inline;fill:url(#linearGradient1053);fill-opacity:1;stroke:#ffff00;stroke-width:0.0415706;stroke-linecap:butt;stroke-linejoin:miter;stroke-miterlimit:4;stroke-dasharray:none;stroke-opacity:1"
         d="m 14.58665,5.8738294 c 0.390991,-0.1987156 1.655464,-0.5277802 2.4999,-0.6535789 m -3.870626,-0.9619674 2.21685,-0.1574306 m -2.293826,0.6124621 2.369517,-0.1882035 m -4.681624,1.5322277 c 0.243332,0.5962454 2.807641,0.1965763 3.714254,-0.1648475 0.78026,-0.2973193 1.887163,0.3917539 2.34016,0.401189 0.610527,0.015402 1.105031,-0.1453041 1.136779,-0.4871022 C 18.02077,5.544753 17.605972,5.3596379 17.10636,5.2276048 L 15.508465,4.5251111 C 15.537344,4.0117737 15.152961,3.2742566 14.299652,3.2904267 13.319758,3.4515562 13.239484,4.0727712 13.119746,4.7315611 11.851843,5.9795129 10.668302,5.6858448 10.826841,6.0573388 Z"
         sodipodi:nodetypes="ccccccccccccccc" />
      <path
         style="display:inline;fill:#000000;stroke:#000000;stroke-width:0.0207335;stroke-linecap:butt;stroke-linejoin:miter;stroke-miterlimit:4;stroke-dasharray:none;stroke-opacity:1"
         d="m 14.495491,4.6672027 c 1.557092,-0.061894 2.265,0.5728141 2.858808,1.1274139 0.516597,0.4823603 0.813671,1.0496037 0.88636,1.7147531 0.05952,1.0217266 -0.181312,1.0412231 -0.17933,1.3000077 0.01038,0.3787614 0.236306,0.4379841 0.314967,0.8620863 0.04578,0.9309193 -1.007763,1.3416613 -1.396209,1.4176143 -0.816601,0.152497 -2.256573,0.23099 -3.341428,-0.269991 -0.701584,-0.320894 -2.333826,-1.4795711 -2.305062,-3.0112926 0.04429,-1.0702212 0.428952,-1.5201129 0.96869,-2.1509946 0.552342,-0.5605859 1.316699,-0.9660809 2.193204,-0.9895971 z"
         id="path941"
         sodipodi:nodetypes="cccccccccc" />
      <path
         id="path1008-3"
         style="display:inline;fill:url(#linearGradient1051);fill-opacity:1;stroke:#ffff00;stroke-width:0.0415706;stroke-linecap:butt;stroke-linejoin:miter;stroke-miterlimit:4;stroke-dasharray:none;stroke-opacity:1"
         d="m 13.138948,4.7133146 2.369517,-0.1882035 m -4.681624,1.5322277 c 0.243332,0.5962454 2.807641,0.1965763 3.714254,-0.1648475 1.395919,-0.5050546 2.156781,-0.5760901 2.565265,-0.6648865 L 15.508465,4.5251111 c -1.171689,0.085447 -0.666638,0.043696 -2.388719,0.20645 -1.267903,1.2479557 -2.451444,0.9542837 -2.292905,1.3257777 z"
         sodipodi:nodetypes="cccccccc" />
      <path
         style="display:inline;fill:url(#linearGradient993);fill-opacity:1;stroke:url(#linearGradient970);stroke-width:0.0311002;stroke-linecap:butt;stroke-linejoin:miter;stroke-miterlimit:4;stroke-dasharray:none;stroke-opacity:1"
         d="m 16.5807,7.0100314 c 0.170301,-0.011914 0.202281,-0.9116187 0.485511,-0.9432731 0.207254,-0.021941 0.781491,0.5323599 1.026507,1.8033226 0.07664,0.3499158 -0.144928,0.6178256 -0.145653,0.9536758 0.0012,0.1247696 -0.03259,0.1929953 0.104039,0.3780059 0.177514,0.2700414 0.310292,0.5851136 0.183798,0.8877884 -0.215681,0.44244 -0.728294,0.800353 -1.290067,0.922469 -0.651792,0.129381 -1.327736,0.148999 -2.056481,0.04508 -0.57986,-0.126783 -1.21884,-0.289009 -1.4704,-0.686649 C 13.135187,9.8290563 13.376565,9.4416126 14.0942,9.2225698 13.476064,8.5821749 13.185601,8.183055 13.185601,7.4435276 c 0,-0.493226 0.376035,-0.9909028 1.050785,-1.2900713 0.246116,-0.099403 0.621462,-0.055873 0.995295,0.062422 0.595684,0.1722174 1.192921,0.8035496 1.349019,0.7941531 z"
         id="path19-8"
         sodipodi:nodetypes="cccccccccccccc" />
      <path
         style="display:inline;fill:#ffffff;stroke:#000000;stroke-width:0.0622003;stroke-linecap:butt;stroke-linejoin:miter;stroke-miterlimit:4;stroke-dasharray:none;stroke-opacity:1"
         d="m 15.664171,7.4399682 c 0.433721,-0.052472 0.843554,0.5125262 0.843554,1.0495372 -0.01094,0.5055873 -0.237693,0.7659082 -0.534578,0.9465453 -0.492387,0.2842797 -1.05543,-0.2554226 -1.094271,-0.7945104 -0.04852,-0.5718662 0.176919,-1.1127171 0.785295,-1.2015721 z"
         id="path877"
         sodipodi:nodetypes="ccccc" />
      <path
         style="display:inline;fill:#ffffff;stroke:#000000;stroke-width:0.0622003;stroke-linecap:butt;stroke-linejoin:miter;stroke-miterlimit:4;stroke-dasharray:none;stroke-opacity:1"
         d="m 17.356419,7.3946196 c 0.332559,-0.037461 0.552378,0.4218026 0.552378,0.8637555 -0.0035,0.3189904 -0.155648,0.6303324 -0.350054,0.7789945 -0.322426,0.2339558 -0.678071,-0.10157 -0.716555,-0.6538731 -0.03177,-0.4706373 0.167359,-0.9353628 0.514231,-0.9888769 z"
         id="path879"
         sodipodi:nodetypes="ccccc" />
      <path
         style="display:inline;fill:#8d9dbf;fill-opacity:1;stroke:#000000;stroke-width:0.0622003;stroke-linecap:butt;stroke-linejoin:miter;stroke-miterlimit:4;stroke-dasharray:none;stroke-opacity:1"
         d="m 17.512521,8.1310362 c 0.165965,-0.00313 0.249898,0.1707671 0.229089,0.4133194 -0.03335,0.3051555 -0.191009,0.4439828 -0.302761,0.4925243 -0.20388,0.079974 -0.361361,-0.096911 -0.372454,-0.319394 -0.02347,-0.2546007 0.199664,-0.5722151 0.446126,-0.5864497 z"
         id="path879-9"
         sodipodi:nodetypes="ccccc" />
      <path
         style="display:inline;fill:#8d9dbf;fill-opacity:1;stroke:#000000;stroke-width:0.0622003;stroke-linecap:butt;stroke-linejoin:miter;stroke-miterlimit:4;stroke-dasharray:none;stroke-opacity:1"
         d="m 16.047364,8.2931794 c 0.270101,-0.022566 0.337927,0.2342539 0.31365,0.4698584 -0.02085,0.249632 -0.209744,0.5160846 -0.394876,0.6154751 -0.278595,0.1382361 -0.538677,-0.00235 -0.525089,-0.3645814 0.02163,-0.314657 0.275993,-0.6849714 0.606315,-0.7207521 z"
         id="path902"
         sodipodi:nodetypes="ccccc" />
      <path
         style="display:inline;fill:#000000;fill-opacity:1;stroke:#000000;stroke-width:0.0311002;stroke-linecap:butt;stroke-linejoin:miter;stroke-miterlimit:4;stroke-dasharray:none;stroke-opacity:1"
         d="m 16.052516,8.5950247 c 0.181637,-0.013907 0.264031,0.1385801 0.224796,0.2857372 -0.0465,0.1536532 -0.165326,0.3141908 -0.279418,0.4031093 -0.173475,0.1024232 -0.306715,0.027932 -0.322568,-0.2011334 0.01152,-0.2157444 0.09957,-0.4656931 0.37719,-0.4877131 z"
         id="path905"
         sodipodi:nodetypes="ccccc" />
      <path
         style="display:inline;fill:#000000;fill-opacity:1;stroke:#000000;stroke-width:0.0311002;stroke-linecap:butt;stroke-linejoin:miter;stroke-miterlimit:4;stroke-dasharray:none;stroke-opacity:1"
         d="m 17.508826,8.3741993 c 0.137542,-0.011875 0.159719,0.1212228 0.159719,0.2468026 -0.02261,0.1311241 -0.113743,0.2780183 -0.208017,0.3302238 -0.141872,0.072615 -0.251651,0.015403 -0.262958,-0.1932895 -0.0031,-0.1652746 0.125706,-0.3649421 0.311256,-0.3837369 z"
         id="path927"
         sodipodi:nodetypes="ccccc" />
      <circle
         style="display:inline;opacity:0.88;fill:#ffffff;fill-opacity:1;stroke:#ffffff;stroke-width:0.0311002;stroke-miterlimit:4;stroke-dasharray:none;stroke-opacity:0.996154"
         id="path930"
         cx="15.863382"
         cy="9.1945286"
         r="0.076294355" />
      <circle
         style="display:inline;opacity:0.88;fill:#ffffff;fill-opacity:1;stroke:#ffffff;stroke-width:0.0311002;stroke-miterlimit:4;stroke-dasharray:none;stroke-opacity:0.996154"
         id="circle932"
         cx="17.3521"
         cy="8.8755112"
         r="0.062807299" />
      <path
         style="display:inline;fill:#000000;stroke:#000000;stroke-width:0.0103667;stroke-linecap:butt;stroke-linejoin:miter;stroke-miterlimit:4;stroke-dasharray:none;stroke-opacity:1"
         d="m 15.244681,10.42074 c 0.260802,0.187662 0.539537,0.326473 0.96842,0.32078 0.63,-0.04874 1.00857,-0.479958 1.047312,-0.436957 0.02778,0.0335 -0.289933,0.486624 -1.047312,0.571576 -0.582782,0.03228 -0.840024,-0.182902 -1.015508,-0.422703 -0.111499,0.0549 -0.245067,0.223776 -0.322243,0.216994 -0.02476,-0.04293 0.01457,-0.146362 0.208076,-0.328587 0.118159,-0.09468 0.250525,-0.203378 0.276984,-0.184543 0.04071,0.02488 0.0649,0.06399 0.08455,0.104779 0.01403,0.0257 -0.138106,0.09427 -0.200274,0.158661 z"
         id="path935"
         sodipodi:nodetypes="cccccccccc" />
      <ellipse
         style="display:inline;opacity:0.88;fill:#000000;fill-opacity:1;stroke:#000000;stroke-width:0.0103667;stroke-miterlimit:4;stroke-dasharray:none;stroke-opacity:0.996154"
         id="path938"
         cx="16.975018"
         cy="9.645195"
         rx="0.63757026"
         ry="0.37273338" />
      <path
         style="display:inline;fill:#f9de47;fill-opacity:1;stroke:#000000;stroke-width:0.0311002;stroke-linecap:butt;stroke-linejoin:miter;stroke-miterlimit:4;stroke-dasharray:none;stroke-opacity:1"
         d="m 15.406691,11.200407 c 0.407032,0.01093 0.7956,-0.0058 1.124331,-0.04415 0.0086,0.145966 0.01716,0.28629 0.02574,0.427907 0.01057,0.186052 -0.72054,0.23624 -0.806771,0.14468 -0.136394,-0.161513 -0.231777,-0.350358 -0.343307,-0.528445 z"
         id="path82"
         sodipodi:nodetypes="ccccc" />
      <path
         style="display:inline;fill:#feec40;fill-opacity:1;stroke:#000000;stroke-width:0.0311002;stroke-linecap:butt;stroke-linejoin:miter;stroke-miterlimit:4;stroke-dasharray:none;stroke-opacity:1"
         d="m 13.362466,12.080141 c 0.957979,0.04693 1.800091,-0.03742 2.361531,-0.350136 0.01121,0.485833 -0.09757,1.048531 -0.82524,1.192839 -0.227459,0.0362 -1.048668,-0.06743 -1.522421,-0.121375 0.181579,-0.164597 0.196134,-0.448669 -0.01387,-0.721328 z"
         id="path908"
         sodipodi:nodetypes="ccccc" />
      <path
         style="display:inline;fill:#feec40;fill-opacity:1;stroke:#000000;stroke-width:0.0311002;stroke-linecap:butt;stroke-linejoin:miter;stroke-miterlimit:4;stroke-dasharray:none;stroke-opacity:1"
         d="m 16.559895,11.473255 c 1.472229,0.239546 2.824536,-0.208802 3.204363,-0.572209 0.100758,0.241455 0.193516,0.488913 0.14912,0.839237 -0.659146,0.503087 -1.355739,0.702442 -2.098095,0.530593 -0.223325,-0.354599 -0.701663,-0.58069 -1.255388,-0.797621 z"
         id="path911"
         sodipodi:nodetypes="ccccc" />
      <path
         id="path936"
         style="display:inline;fill:#ffffff;stroke:#000000;stroke-width:0.0311002;stroke-linecap:butt;stroke-linejoin:miter;stroke-miterlimit:4;stroke-dasharray:none;stroke-opacity:1"
         d="m 11.682326,13.519764 c 0.09998,0.0086 0.375384,-0.430348 -0.04133,-0.3779 0.07101,-0.0094 0.217209,-7.83e-4 0.323458,-0.03647 0.190158,-0.07852 0.234288,0.07812 0.614977,0.446052 m -0.08399,-1.245684 c 0.07352,0.0073 0.155714,0.0047 0.246263,0.0098 0.08022,0.0045 0.127684,-0.0054 0.193563,-7.84e-4 m -0.702058,-0.178717 c 0.101824,0.0081 0.215751,0.0064 0.341198,0.01238 0.111126,0.0054 0.176982,-0.004 0.268243,0.0016 m -0.622094,-0.190173 c 0.07351,0.0073 0.155714,0.0047 0.246262,0.0098 0.08021,0.0045 0.127684,-0.0054 0.19356,-7.84e-4 m 0.250768,-0.03542 c 0.246525,0.250247 0.3614,0.631317 0.285274,0.866107 l 0.01227,-0.0062 m -1.002101,-0.978913 c -0.252665,-0.137921 -0.465118,-0.376363 -0.769991,-0.383764 -0.124083,-0.05286 -0.279652,-0.284547 -0.326141,-0.258707 -0.165667,0.09136 -0.199707,0.287908 -0.08338,0.411968 0.135975,0.135684 0.263114,0.249307 0.451204,0.384991 0.04134,0.03221 0.04893,0.146021 0.02206,0.171653 -0.142738,0.123218 -0.292014,0.317514 -0.337178,0.438944 -0.04134,0.140563 -0.03123,0.317165 0.07725,0.397255 -0.110793,0.410789 0.08127,0.55556 0.453657,0.541937 0.0087,0.263548 0.0103,0.331544 -0.01716,0.480629 -0.123179,0.678239 -1.069563,1.616565 -1.007853,2.008346 0.05236,0.299964 0.301524,0.716101 0.3335,0.811676 0.330075,0.955537 0.326893,1.332359 0.47327,1.581666 0.05958,0.101899 0.461396,0.443834 0.888566,0.122845 0.687725,-0.51693 1.144563,-1.498089 1.627386,-1.483815 0.332454,7.84e-4 1.275128,0.168394 1.30947,-0.179007 -0.02915,-0.391888 -0.267811,-0.385019 -0.334881,-0.522267 -0.453736,-1.029539 -1.082784,-2.003547 -1.641583,-2.25607 -0.267354,-0.11113 -0.580589,-0.14657 -0.745346,-0.531529 -0.03577,-0.124072 0.264971,-0.278412 0.433917,-0.415016 0.08653,-0.06402 0.132934,-0.217206 0.18307,-0.336693 0.06088,-0.0081 0.123696,-0.0047 0.186852,7.83e-4 0.236855,-0.24397 0.11591,-0.553875 -0.02319,-0.718977 -0.05278,-0.05443 -0.137079,-0.137384 -0.252359,-0.134372 -0.35671,0.0093 -0.310277,-0.113904 -0.90113,-0.132625 z m -0.966164,1.16234 c 0.04757,-0.174721 0.16989,-0.449342 0.437953,-0.40951 m -0.179247,-0.42509 0.273419,-0.223518"
         sodipodi:nodetypes="cccccccccccccccccccccccccccccccccccccccsccccc" />
      <path
         style="display:inline;fill:#ffffff;stroke:#000000;stroke-width:0.0311002;stroke-linecap:butt;stroke-linejoin:miter;stroke-miterlimit:4;stroke-dasharray:none;stroke-opacity:1"
         d="m 12.028774,14.301986 c -0.06216,-0.218087 0.0179,-0.566122 0.002,-0.825561 -0.01065,-0.175266 -0.0651,-0.3101 -0.236698,-0.337128 0.241486,0.03033 0.2693,0.417579 0.341135,0.491173 0.280914,0.28779 0.464655,0.827204 0.712899,1.041607"
         id="path939"
         sodipodi:nodetypes="cscsc" />
      <text
         xml:space="preserve"
         style="font-size:0.814156px;line-height:1.25;font-family:sans-serif;display:inline;stroke-width:0.103667"
         x="1.8226969"
         y="20.217434"
         id="text1093"
         transform="rotate(-32.81163)"><tspan
           sodipodi:role="line"
           x="1.8226969"
           y="20.217434"
           id="tspan1091"
           style="font-style:italic;font-variant:normal;font-weight:normal;font-stretch:normal;font-family:'Segoe Print';-inkscape-font-specification:'Segoe Print Italic';text-align:center;text-anchor:middle;stroke-width:0.103667">take a</tspan><tspan
           sodipodi:role="line"
           x="1.8226969"
           y="21.257034"
           style="font-style:italic;font-variant:normal;font-weight:normal;font-stretch:normal;font-family:'Segoe Print';-inkscape-font-specification:'Segoe Print Italic';text-align:center;text-anchor:middle;stroke-width:0.103667"
           id="tspan1101">break</tspan></text>
      <g
         id="g89"
         transform="matrix(0.10366716,0,0,0.10366716,-20.289767,-12.257886)"
         style="display:inline">
        <path
           id="path64-6"
           style="display:inline;fill:none;fill-opacity:1;stroke:#000000;stroke-width:0.3;stroke-linecap:butt;stroke-linejoin:miter;stroke-miterlimit:4;stroke-dasharray:none;stroke-opacity:1"
           d="m 398.00252,164.606 c -0.0858,-1.57735 -3.92841,-1.56321 -3.85917,-0.13795 l -0.0117,80.26955 c -2.28428,-0.13637 -5.24135,0.89961 -6.10288,1.98874 1.15328,2.56326 2.56503,4.98289 3.20387,7.93285 l -0.45216,0.0111 0.0387,4.27579 c -6.94455,8.56201 -11.37166,17.94954 -14.57242,27.02474 0.55946,0.558 1.64303,0.9087 2.04477,1.0578 3.19587,-8.22495 0.56611,0.17177 0.87865,0.25262 0.91388,0.23582 2.07845,0.44306 2.74683,0.55467 3.39584,-12.1393 0.31533,0.0493 0.47629,0.0732 0.5536,0.0822 1.13307,0.15824 1.7344,0.22818 0.11717,0.0136 1.27654,-5.11361 1.39533,-5.10045 0.13093,0.0145 -0.77854,5.16936 -0.6457,5.1833 0.44209,0.0464 0.76792,0.0695 1.10002,0.0985 0.0722,0.006 1.44169,-6.92502 0.47288,0.0499 0.36063,0.0466 0.87309,0.0758 1.21521,0.0939 0.10839,0.008 1.22027,-4.8065 0.5073,0.0446 0.49592,0.056 0.84514,0.0404 1.25843,0.0642 0.1917,0.0102 1.2498,-6.07898 1.4431,-6.06979 0.0942,0.004 -0.67683,6.10765 -0.5822,6.11191 0.89407,0.0402 1.62067,0.0703 2.53677,0.0903 0.13378,0.003 0.59655,-6.21313 0.58442,0.008 0.47115,0.0412 1.14339,0.0152 1.60718,0.0198 0.14629,8.3e-4 0.73107,-6.65485 0.87736,-6.65453 0.26834,5.8e-4 0.0981,6.65654 0.36616,6.6554 0.77123,-0.003 1.54029,-0.0137 2.30225,-0.0313 0.17195,-0.004 0.12432,-6.3208 0.29549,-6.3255 0.15916,-0.004 0.5372,6.30345 0.69559,6.29846 0.75352,-0.0238 1.49782,-0.0547 2.22797,-0.0928 0.0974,-0.005 -0.0247,-3.38528 0.0721,-3.39061 0.13397,-0.007 0.48666,3.36001 0.61958,3.35215 0.53048,-0.0314 1.05244,-0.0666 1.56393,-0.10574 0.11366,-0.009 -0.24821,-4.67384 -0.13561,-5.24542 0.0182,-0.0925 0.94865,5.20097 1.05679,5.1918 0.7075,-0.06 1.13669,-0.12762 1.79368,-0.20305 0.17448,-0.02 -0.34728,-5.9781 -0.17686,-5.99922 0.1465,-0.0182 0.98572,5.90078 1.12908,5.88181 0.72928,-0.0965 1.41713,-0.2034 2.05495,-0.32082 0.15948,-0.0294 -0.56113,-3.27812 -0.40804,-3.30879 0.15286,-0.0306 1.17942,3.15685 1.32565,3.12491 0.71068,-0.1552 1.34136,-0.32587 1.8767,-0.51204 0.0927,-0.0323 -0.87705,-2.8774 -0.79017,-2.9106 0.12442,-0.0475 1.30248,2.7166 1.41462,2.66715 0.45908,-0.20225 0.81323,-0.42052 1.0464,-0.65484 -1.63351,-9.64409 -8.27714,-20.84715 -12.87764,-27.20152 l -0.15139,-4.28303 -0.46919,-0.004 c 0.34399,-2.70198 1.76074,-5.24502 3.26262,-7.98954 -1.86088,-1.54752 -3.31572,-1.74127 -5.90853,-1.9153 z m -6.7694,90.05319 h 9.49724"
           sodipodi:nodetypes="cccccccccccsssssccccsssccssssssssssssssssssssccccccccc" />
        <path
           id="path3028"
           style="display:inline;fill:url(#linearGradient3042);fill-opacity:1;stroke:#000000;stroke-width:0.3;stroke-linecap:butt;stroke-linejoin:miter;stroke-miterlimit:4;stroke-dasharray:none;stroke-opacity:1"
           d="m 399.65138,164.78563 c -0.16452,-1.58075 -7.5302,-1.56658 -7.39749,-0.13824 l -0.0224,80.44299 c -8.34766,0.6912 16.09468,0.6248 7.57601,0.0166 z"
           sodipodi:nodetypes="ccccc" />
        <rect
           style="fill:url(#linearGradient3056);fill-opacity:1;stroke:#000000;stroke-width:0.300001;stroke-miterlimit:4;stroke-dasharray:none"
           id="rect3048"
           width="10.431869"
           height="4.1358843"
           x="390.78049"
           y="254.67029" />
      </g>
      <path
         id="path923"
         style="display:inline;fill:#ffffff;stroke:#000000;stroke-width:0.0311002;stroke-linecap:butt;stroke-linejoin:miter;stroke-miterlimit:4;stroke-dasharray:none;stroke-opacity:1"
         d="m 20.977205,11.3746 c -0.0043,-0.237215 0.17639,-0.349074 0.413327,-0.325644 0.149078,0.01517 0.28093,0.124604 0.280115,0.304941 -0.0027,0.171884 -0.110452,0.253408 -0.300226,0.29266 -0.266124,0.03142 -0.383554,-0.108074 -0.393216,-0.271957 z m -0.0084,-0.602463 c -0.0043,-0.237216 0.188951,-0.351366 0.425889,-0.327936 0.151172,0.02434 0.314425,0.108568 0.31361,0.288907 -0.0027,0.171881 -0.185813,0.248824 -0.375591,0.288077 -0.266123,0.03142 -0.354246,-0.08516 -0.363908,-0.249048 z M 21.08071,9.6599371 c 0.17842,-0.1348193 0.406251,-0.00235 0.519172,0.226785 0.0649,0.1513649 0.09182,0.3982929 -0.04605,0.4970889 -0.138361,0.08268 -0.359798,0.05523 -0.48568,-0.119119 -0.170838,-0.225481 -0.106992,-0.5054857 0.01258,-0.6047549 z m -0.743167,0.6310419 c -0.09746,0.01919 -0.114131,-0.01137 -0.146542,-0.04232 m -0.426802,0.652387 c 0.06369,-0.563066 0.203606,-1.05892 0.650802,-1.202332 0.298871,-0.063555 0.497567,0.1337023 0.561036,0.410209 0.01995,0.137507 -0.124232,0.2689 -0.226087,0.229073 -0.349654,-0.07308 -0.431649,-0.08312 -0.445903,0.0046 -0.06088,0.421634 0.187341,0.27832 0.337041,0.334448 0.05563,0.03581 0.06714,1.186017 0,1.27365 H 20.32288 c -0.06564,-0.0012 -0.18338,-0.179756 -0.29308,-0.08247 -0.03561,0.01564 -0.08775,-0.0068 -0.129325,-0.127926 0.03452,-0.354313 -0.03158,-0.570233 -0.136281,-0.839241 z"
         sodipodi:nodetypes="cccccccccccccccccccccccccccc" />
      <path
         style="display:inline;fill:#000000;fill-opacity:1;stroke:#000000;stroke-width:0.0311002;stroke-linecap:butt;stroke-linejoin:miter;stroke-miterlimit:4;stroke-dasharray:none;stroke-opacity:1"
         d="m 15.733157,11.73917 c 0.270806,0.113531 0.823169,-0.01603 0.826064,-0.136684 l 7.83e-4,-0.129231 c 0.561351,0.223004 1.057005,0.465724 1.255392,0.797621 0.08369,0.140116 0.0141,0.327928 -0.188575,0.417421 -0.435551,0.195339 -1.428354,0.279006 -2.077702,-0.164933 0.157187,-0.267507 0.182131,-0.498362 0.1842,-0.784194 z"
         id="path950"
         sodipodi:nodetypes="ccccccc" />
      <path
         style="display:inline;fill:url(#linearGradient986);fill-opacity:1;stroke:#000000;stroke-width:0.0311002;stroke-linecap:butt;stroke-linejoin:miter;stroke-miterlimit:4;stroke-dasharray:none;stroke-opacity:1"
         d="m 15.548959,12.523364 c -0.131594,0.210333 -0.356315,0.350116 -0.689465,0.407751 -0.07933,0.08829 -0.126211,0.195135 -0.176387,0.300086 1.788865,0.954182 2.965205,0.751364 3.823248,-0.05269 -0.14246,-0.298365 -0.352284,-0.591924 -0.579559,-0.884227 l -0.111513,-0.02343 c 0.115126,0.320072 -0.162164,0.431997 -0.486369,0.511339 -0.613238,0.135125 -1.209437,0.07595 -1.779955,-0.258851 z"
         id="path953"
         sodipodi:nodetypes="cccccccc" />
      <path
         style="display:inline;fill:#000000;stroke:#000000;stroke-width:0.0311002;stroke-linecap:butt;stroke-linejoin:miter;stroke-miterlimit:4;stroke-dasharray:none;stroke-opacity:1"
         d="m 14.683107,13.231201 c -0.198908,0.431633 -0.299517,0.829578 -0.350485,1.225552 0.214185,0.332104 3.960841,1.468871 4.553043,-0.122042 -0.03514,-0.404617 -0.180489,-0.786036 -0.37931,-1.156193 -1.285307,1.228929 -2.89761,0.560026 -3.823248,0.05269 z"
         id="path988"
         sodipodi:nodetypes="ccccc" />
      <path
         style="display:inline;fill:url(#linearGradient1007);fill-opacity:1;stroke:#000000;stroke-width:0.0311002;stroke-linecap:butt;stroke-linejoin:miter;stroke-miterlimit:4;stroke-dasharray:none;stroke-opacity:1"
         d="m 14.332622,14.456753 c -0.02668,0.237607 -0.03797,0.42793 -0.03209,0.631097 l 0.158065,0.250839 c 0.689332,0.393716 1.700711,0.999244 2.651751,0.994856 1.365593,-0.0062 1.802457,-1.280994 1.7753,-1.998834 -0.611863,1.569876 -4.263391,0.480977 -4.553042,0.122042 z"
         id="path991"
         sodipodi:nodetypes="cccccc" />
      <path
         id="path1017"
         style="display:inline;fill:url(#linearGradient1026);fill-opacity:1;stroke:#000000;stroke-width:0.0311002;stroke-linecap:butt;stroke-linejoin:miter;stroke-miterlimit:4;stroke-dasharray:none;stroke-opacity:1"
         d="m 15.357742,17.089989 c 0.241929,-0.02257 0.437005,0.258284 0.422178,0.501663 -0.03655,0.435029 -0.331144,0.804324 -0.616552,0.986933 -0.0056,0.242211 1.02e-4,0.488152 -0.02915,0.722429 -0.101119,0.591844 -0.548487,0.891291 -1.19217,0.900609 -0.555692,-0.0093 -1.060112,-0.154919 -0.988077,-1.185692 0.03805,-0.540416 0.446314,-1.243767 1.067447,-1.706459 l 0.0068,-0.008 c 0.0097,0.08968 0.04251,0.183769 0.06496,0.231766 m 0.934873,-0.471579 c 0.09478,-0.0073 0.194696,-0.04802 0.252877,-0.11944 0.314359,0.502716 0.03726,0.967175 -0.123699,1.184314 -0.240566,0.297632 -0.54323,0.25119 -0.810924,0.05956 -0.217496,-0.169956 -0.253096,-0.416457 -0.253127,-0.652857 0.130517,0.303314 0.398646,0.351306 0.634533,0.272596 0.290412,-0.110445 0.393216,-0.399328 0.30034,-0.744171 z" />
      <path
         id="path924"
         style="display:inline;fill:url(#linearGradient959);fill-opacity:1;stroke:#000000;stroke-width:0.0311002;stroke-linecap:butt;stroke-linejoin:miter;stroke-miterlimit:4;stroke-dasharray:none;stroke-opacity:1"
         d="m 16.881326,17.560749 c -0.07145,-0.206395 -0.335925,-0.186679 -0.42313,-0.130893 -0.315629,0.201917 -0.401624,1.022181 -0.137209,1.372431 0.184512,0.294811 0.591472,0.261171 0.723874,0.160353 0.303111,-0.225257 0.404802,-0.511218 0.311542,-0.768545 m -0.0143,-0.0075 c 0.321408,0.128606 0.744547,1.556214 0.20236,2.248286 -0.286137,0.352807 -1.072224,0.382225 -1.477261,-0.01943 -0.312529,-0.269792 -0.603516,-1.246819 -0.168455,-1.827134 2.07e-4,-0.379995 -0.04459,-0.764266 0.200855,-1.120902 0.0672,-0.09908 0.227804,-0.11122 0.362834,-0.04536 0.378612,-0.131108 0.450381,0.202277 0.416403,0.17304 -0.06512,-0.01094 -0.09564,-0.06799 -0.143329,-0.102161 -0.166489,0.132412 -0.253746,0.505434 -0.0277,0.7188 0.218557,0.146323 0.699628,0.191177 0.634309,-0.02512 z" />
      <path
         sodipodi:type="star"
         style="display:inline;opacity:0.359621;fill:#ffffff;fill-opacity:1;stroke:url(#radialGradient1020-4);stroke-width:1.79241;stroke-miterlimit:4;stroke-dasharray:none"
         id="path1004-4"
         sodipodi:sides="4"
         sodipodi:cx="193.74725"
         sodipodi:cy="313.42508"
         sodipodi:r1="21.451435"
         sodipodi:r2="2.1451435"
         sodipodi:arg1="0.67152345"
         sodipodi:arg2="1.4569216"
         inkscape:flatsided="false"
         inkscape:rounded="0.04"
         inkscape:randomized="0"
         transform="matrix(0.01023434,0.01384972,-0.00720949,0.01966057,14.504656,10.491242)"
         inkscape:transform-center-x="0.6366946"
         d="m 210.54104,326.77172 c -0.49755,0.62606 -15.75553,-11.30626 -16.55004,-11.21539 -0.79451,0.0909 -12.96433,15.16009 -13.59039,14.66254 -0.62605,-0.49755 11.30626,-15.75553 11.21539,-16.55004 -0.0909,-0.79451 -15.16008,-12.96434 -14.66253,-13.59039 0.49755,-0.62606 15.75552,11.30626 16.55003,11.21539 0.79451,-0.0909 12.96434,-15.16009 13.59039,-14.66254 0.62606,0.49755 -11.30625,15.75553 -11.21539,16.55004 0.0909,0.79451 15.16009,12.96433 14.66254,13.59039 z" />
      <path
         sodipodi:type="star"
         style="display:inline;opacity:0.217666;fill:#ffffff;fill-opacity:1;stroke:url(#radialGradient1087);stroke-width:1.31863;stroke-miterlimit:4;stroke-dasharray:none"
         id="path1085"
         sodipodi:sides="4"
         sodipodi:cx="193.74725"
         sodipodi:cy="313.42508"
         sodipodi:r1="21.451435"
         sodipodi:r2="2.1451435"
         sodipodi:arg1="0.67152345"
         sodipodi:arg2="1.4569216"
         inkscape:flatsided="false"
         inkscape:rounded="0.04"
         inkscape:randomized="0"
         transform="matrix(0.01129625,0.02070404,-0.02070404,0.01129625,20.740809,11.373381)"
         d="m 210.54104,326.77172 c -0.49755,0.62606 -15.75553,-11.30626 -16.55004,-11.21539 -0.79451,0.0909 -12.96433,15.16009 -13.59039,14.66254 -0.62605,-0.49755 11.30626,-15.75553 11.21539,-16.55004 -0.0909,-0.79451 -15.16008,-12.96434 -14.66253,-13.59039 0.49755,-0.62606 15.75552,11.30626 16.55003,11.21539 0.79451,-0.0909 12.96434,-15.16009 13.59039,-14.66254 0.62606,0.49755 -11.30625,15.75553 -11.21539,16.55004 0.0909,0.79451 15.16009,12.96433 14.66254,13.59039 z" />
      <path
         style="display:inline;fill:url(#linearGradient998);fill-opacity:1;stroke:none;stroke-width:0.0311002;stroke-linecap:butt;stroke-linejoin:miter;stroke-miterlimit:4;stroke-dasharray:none;stroke-opacity:1"
         d="m 13.324696,18.092157 c 0.378275,-0.63639 0.653528,-0.49051 0.822074,-0.155616 0.117618,0.233705 0.04782,0.939618 0.05299,1.133765 0.07551,0.64867 -0.585228,1.113666 -0.860175,0.973565 -0.349367,-0.218604 -0.363708,-0.596503 -0.351628,-0.996474 0.01869,-0.33292 0.16958,-0.663551 0.33674,-0.95524 z"
         id="path1068"
         sodipodi:nodetypes="cscccc" />
      <path
         style="display:inline;fill:url(#linearGradient990);fill-opacity:1;stroke:none;stroke-width:0.0311003;stroke-linecap:butt;stroke-linejoin:miter;stroke-miterlimit:4;stroke-dasharray:none;stroke-opacity:1"
         d="m 15.73963,19.021647 c 0.02077,-0.07963 0.04926,-0.170956 0.101116,-0.280452 0.02186,-0.04612 0.06507,-0.09243 0.08736,-0.148853 0.04965,-0.12569 -0.02038,-0.589691 0.03758,-0.768243 0.06984,-0.215267 0.155604,-0.174016 0.180943,-0.04648 0.03616,0.182033 -0.173428,1.152036 0.567831,1.279563 0.199021,0.03425 0.123946,0.338257 0.151592,0.387268 0.343374,0.499965 0.01759,1.179142 -0.263502,1.187213 -0.374875,-2.08e-4 -0.58509,-0.233239 -0.749903,-0.567831 -0.130266,-0.282379 -0.185585,-0.762389 -0.11301,-1.042187 z"
         id="path969"
         sodipodi:nodetypes="cssssscccc" />
      <path
         style="display:inline;fill:#000000;stroke:#000000;stroke-width:0.0311002;stroke-linecap:butt;stroke-linejoin:miter;stroke-miterlimit:4;stroke-dasharray:none;stroke-opacity:1"
         d="m 14.42998,15.295162 c 0.204793,0.337546 0.38471,0.710039 0.53901,1.051339 0.02908,0.04913 0.146796,0.11865 0.220293,0.194375 0.05286,0.04738 0.0903,0.12748 0.111768,0.276988 0.105844,0.09639 0.770119,0.496365 1.566346,0.422767 l 0.01144,0.354457 c -0.07196,-0.02065 -0.127249,-0.111757 -0.154782,-0.08155 -0.194558,0.183295 -0.152893,0.497783 -0.08344,0.611499 0.05599,0.08902 0.331975,0.268791 0.659111,0.164272 0.03899,-0.01059 0.03813,-0.06924 0.03091,-0.102722 0.506234,-0.0853 0.405401,-0.866475 0.434109,-1.312036 0.604465,-0.452646 1.188607,-0.897824 1.12252,-2.415742 -0.249852,2.567494 -2.779368,2.009032 -4.457306,0.836348 z"
         id="path1010"
         sodipodi:nodetypes="ccccccccccccc" />
      <path
         style="display:inline;fill:#000000;stroke:#000000;stroke-width:0.0311002;stroke-linecap:butt;stroke-linejoin:miter;stroke-miterlimit:4;stroke-dasharray:none;stroke-opacity:1"
         d="m 15.028114,17.061642 c 0.09139,0.32522 0.01293,0.733502 -0.464071,0.778313 -0.378856,0.01759 -0.569622,-0.327881 -0.544256,-0.797751 0.324794,0.01219 0.676367,0.07311 1.008327,0.01944 z"
         id="path1012"
         sodipodi:nodetypes="cccc" />
    </g>
  </g>
</svg>
